{
    "asset" : {
        "generator" : "Khronos glTF Blender I/O v1.4.40",
        "version" : "2.0"
    },
    "scene" : 0,
    "scenes" : [
        {
            "name" : "Scene",
            "nodes" : [
                0,
                1,
                2,
                13,
                14
            ]
        }
    ],
    "nodes" : [
        {
            "mesh" : 0,
            "name" : "Cube"
        },
        {
            "name" : "Light",
            "rotation" : [
                0.16907575726509094,
                0.7558803558349609,
                -0.27217137813568115,
                0.570947527885437
            ],
            "translation" : [
                4.076245307922363,
                5.903861999511719,
                -1.0054539442062378
            ]
        },
        {
            "name" : "Camera",
            "rotation" : [
                0.483536034822464,
                0.33687159419059753,
                -0.20870360732078552,
                0.7804827094078064
            ],
            "translation" : [
                7.358891487121582,
                4.958309173583984,
                6.925790786743164
            ]
        },
        {
            "mesh" : 1,
            "name" : "mesh1"
        },
        {
            "name" : "mesh2"
        },
        {
            "name" : "mesh3"
        },
        {
            "children" : [
                3,
                4,
                5
            ],
            "name" : "Group1"
        },
        {
            "mesh" : 2,
            "name" : "mesh4"
        },
        {
            "mesh" : 3,
            "name" : "mesh5"
        },
        {
            "name" : "mesh6"
        },
        {
            "name" : "mesh7"
        },
        {
            "name" : "mesh8"
        },
        {
            "name" : "mesh9"
        },
        {
            "children" : [
                6,
                7,
                8,
                9,
                10,
                11,
                12
            ],
            "name" : "Model"
        },
        {
            "name" : "Camera.001",
            "scale" : [
                0,
                0,
                0
            ],
            "translation" : [
                -9477978425778692729696419840,
                0,
                0
            ]
        }
    ],
    "materials" : [
        {
            "doubleSided" : true,
            "name" : "Material",
            "pbrMetallicRoughness" : {
                "baseColorFactor" : [
                    0.800000011920929,
                    0.800000011920929,
                    0.800000011920929,
                    1
                ],
                "metallicFactor" : 0,
                "roughnessFactor" : 0.4000000059604645
            }
        },
        {
            "doubleSided" : true,
            "name" : "material_0_16",
            "pbrMetallicRoughness" : {
                "baseColorFactor" : [
                    0.47843098640441895,
                    0.800000011920929,
                    0.800000011920929,
                    1
                ],
                "metallicFactor" : 0,
                "roughnessFactor" : 0.4000000059604645
            }
        },
        {
            "doubleSided" : true,
            "name" : "material_2_16",
            "pbrMetallicRoughness" : {
                "baseColorFactor" : [
                    0,
                    0.4000000059604645,
                    0.4000000059604645,
                    1
                ],
                "metallicFactor" : 0,
                "roughnessFactor" : 0.4000000059604645
            }
        }
    ],
    "meshes" : [
        {
            "name" : "Cube",
            "primitives" : [
                {
                    "attributes" : {
                        "POSITION" : 0,
                        "NORMAL" : 1,
                        "TEXCOORD_0" : 2
                    },
                    "indices" : 3,
                    "material" : 0
                }
            ]
        },
        {
            "name" : "mesh1-geometry",
            "primitives" : [
                {
                    "attributes" : {
                        "POSITION" : 4,
                        "NORMAL" : 5
                    },
                    "indices" : 6,
                    "material" : 1
                }
            ]
        },
        {
            "name" : "mesh4-geometry",
            "primitives" : [
                {
                    "attributes" : {
                        "POSITION" : 7,
                        "NORMAL" : 8
                    },
                    "indices" : 9,
                    "material" : 2
                }
            ]
        },
        {
            "name" : "mesh5-geometry",
            "primitives" : [
                {
                    "attributes" : {
                        "POSITION" : 10,
                        "NORMAL" : 11
                    },
                    "indices" : 12,
                    "material" : 2
                }
            ]
        }
    ],
    "accessors" : [
        {
            "bufferView" : 0,
            "componentType" : 5126,
            "count" : 24,
            "max" : [
                1,
                1,
                1
            ],
            "min" : [
                -1,
                -1,
                -1
            ],
            "type" : "VEC3"
        },
        {
            "bufferView" : 1,
            "componentType" : 5126,
            "count" : 24,
            "type" : "VEC3"
        },
        {
            "bufferView" : 2,
            "componentType" : 5126,
            "count" : 24,
            "type" : "VEC2"
        },
        {
            "bufferView" : 3,
            "componentType" : 5123,
            "count" : 36,
            "type" : "SCALAR"
        },
        {
            "bufferView" : 4,
            "componentType" : 5126,
            "count" : 974,
            "max" : [
                -2.0728139877319336,
                46.43085479736328,
                -1.2525420188903809
            ],
            "min" : [
                -2.757934093475342,
                43.8940544128418,
                -2.541590929031372
            ],
            "type" : "VEC3"
        },
        {
            "bufferView" : 5,
            "componentType" : 5126,
            "count" : 974,
            "type" : "VEC3"
        },
        {
            "bufferView" : 6,
            "componentType" : 5123,
            "count" : 1440,
            "type" : "SCALAR"
        },
        {
            "bufferView" : 7,
            "componentType" : 5126,
            "count" : 526,
            "max" : [
                2.1171250343322754,
                39.98106002807617,
                2.6258208751678467
            ],
            "min" : [
                -6.733835220336914,
                0,
                -6.225139141082764
            ],
            "type" : "VEC3"
        },
        {
            "bufferView" : 8,
            "componentType" : 5126,
            "count" : 526,
            "type" : "VEC3"
        },
        {
            "bufferView" : 9,
            "componentType" : 5123,
            "count" : 660,
            "type" : "SCALAR"
        },
        {
            "bufferView" : 10,
            "componentType" : 5126,
            "count" : 978,
            "max" : [
                1.165666937828064,
                43.925697326660156,
                1.6280609369277954
            ],
            "min" : [
                -5.8132147789001465,
                37.71099090576172,
                -5.3508219718933105
            ],
            "type" : "VEC3"
        },
        {
            "bufferView" : 11,
            "componentType" : 5126,
            "count" : 978,
            "type" : "VEC3"
        },
        {
            "bufferView" : 12,
            "componentType" : 5123,
            "count" : 2778,
            "type" : "SCALAR"
        }
    ],
    "bufferViews" : [
        {
            "buffer" : 0,
            "byteLength" : 288,
            "byteOffset" : 0
        },
        {
            "buffer" : 0,
            "byteLength" : 288,
            "byteOffset" : 288
        },
        {
            "buffer" : 0,
            "byteLength" : 192,
            "byteOffset" : 576
        },
        {
            "buffer" : 0,
            "byteLength" : 72,
            "byteOffset" : 768
        },
        {
            "buffer" : 0,
            "byteLength" : 11688,
            "byteOffset" : 840
        },
        {
            "buffer" : 0,
            "byteLength" : 11688,
            "byteOffset" : 12528
        },
        {
            "buffer" : 0,
            "byteLength" : 2880,
            "byteOffset" : 24216
        },
        {
            "buffer" : 0,
            "byteLength" : 6312,
            "byteOffset" : 27096
        },
        {
            "buffer" : 0,
            "byteLength" : 6312,
            "byteOffset" : 33408
        },
        {
            "buffer" : 0,
            "byteLength" : 1320,
            "byteOffset" : 39720
        },
        {
            "buffer" : 0,
            "byteLength" : 11736,
            "byteOffset" : 41040
        },
        {
            "buffer" : 0,
            "byteLength" : 11736,
            "byteOffset" : 52776
        },
        {
            "buffer" : 0,
            "byteLength" : 5556,
            "byteOffset" : 64512
        }
    ],
    "buffers" : [
        {
            "byteLength" : 70068,
            "uri" : "scene.bin"
        }
    ]
}
