{
    "asset" : {
        "generator" : "Khronos glTF Blender I/O v1.4.40",
        "version" : "2.0"
    },
    "scene" : 0,
    "scenes" : [
        {
            "name" : "Scene",
            "nodes" : [
                0,
                1,
                2,
                11,
                12
            ]
        }
    ],
    "nodes" : [
        {
            "mesh" : 0,
            "name" : "Cube"
        },
        {
            "name" : "Light",
            "rotation" : [
                0.16907575726509094,
                0.7558803558349609,
                -0.27217137813568115,
                0.570947527885437
            ],
            "translation" : [
                4.076245307922363,
                5.903861999511719,
                -1.0054539442062378
            ]
        },
        {
            "name" : "Camera",
            "rotation" : [
                0.483536034822464,
                0.33687159419059753,
                -0.20870360732078552,
                0.7804827094078064
            ],
            "translation" : [
                7.358891487121582,
                4.958309173583984,
                6.925790786743164
            ]
        },
        {
            "mesh" : 1,
            "name" : "mesh1"
        },
        {
            "mesh" : 2,
            "name" : "mesh2"
        },
        {
            "name" : "mesh3"
        },
        {
            "name" : "mesh4"
        },
        {
            "name" : "mesh5"
        },
        {
            "name" : "mesh6"
        },
        {
            "name" : "mesh7"
        },
        {
            "name" : "mesh8"
        },
        {
            "children" : [
                3,
                4,
                5,
                6,
                7,
                8,
                9,
                10
            ],
            "name" : "Model"
        },
        {
            "name" : "Camera.001",
            "scale" : [
                0,
                0,
                0
            ],
            "translation" : [
                -0.00244140625,
                648706306526980663355978840801280,
                0
            ]
        }
    ],
    "materials" : [
        {
            "doubleSided" : true,
            "name" : "Material",
            "pbrMetallicRoughness" : {
                "baseColorFactor" : [
                    0.800000011920929,
                    0.800000011920929,
                    0.800000011920929,
                    1
                ],
                "metallicFactor" : 0,
                "roughnessFactor" : 0.4000000059604645
            }
        },
        {
            "doubleSided" : true,
            "name" : "material_8_16",
            "pbrMetallicRoughness" : {
                "baseColorFactor" : [
                    0.4470590054988861,
                    0.4470590054988861,
                    0.4470590054988861,
                    1
                ],
                "metallicFactor" : 0,
                "roughnessFactor" : 0.4000000059604645
            }
        },
        {
            "doubleSided" : true,
            "name" : "material_0_16",
            "pbrMetallicRoughness" : {
                "baseColorFactor" : [
                    0.19017785787582397,
                    0.19017785787582397,
                    0.19017785787582397,
                    0
                ],
                "metallicFactor" : 0,
                "roughnessFactor" : 0.5
            }
        },
        {
            "doubleSided" : true,
            "name" : "material_11_11_0",
            "pbrMetallicRoughness" : {
                "baseColorFactor" : [
                    0.800000011920929,
                    0.800000011920929,
                    0.800000011920929,
                    0
                ],
                "metallicFactor" : 0,
                "roughnessFactor" : 0.5
            }
        },
        {
            "doubleSided" : true,
            "name" : "material_10_10_0",
            "pbrMetallicRoughness" : {
                "baseColorFactor" : [
                    0.800000011920929,
                    0.800000011920929,
                    0.800000011920929,
                    0
                ],
                "metallicFactor" : 0,
                "roughnessFactor" : 0.5
            }
        }
    ],
    "meshes" : [
        {
            "name" : "Cube",
            "primitives" : [
                {
                    "attributes" : {
                        "POSITION" : 0,
                        "NORMAL" : 1,
                        "TEXCOORD_0" : 2
                    },
                    "indices" : 3,
                    "material" : 0
                }
            ]
        },
        {
            "name" : "mesh1-geometry",
            "primitives" : [
                {
                    "attributes" : {
                        "POSITION" : 4,
                        "NORMAL" : 5,
                        "TEXCOORD_0" : 6
                    },
                    "indices" : 7,
                    "material" : 1
                }
            ]
        },
        {
            "name" : "mesh2-geometry",
            "primitives" : [
                {
                    "attributes" : {
                        "POSITION" : 8,
                        "NORMAL" : 9,
                        "TEXCOORD_0" : 10
                    },
                    "indices" : 11,
                    "material" : 2
                },
                {
                    "attributes" : {
                        "POSITION" : 12,
                        "NORMAL" : 13,
                        "TEXCOORD_0" : 14
                    },
                    "indices" : 15,
                    "material" : 1
                },
                {
                    "attributes" : {
                        "POSITION" : 16,
                        "NORMAL" : 17,
                        "TEXCOORD_0" : 18
                    },
                    "indices" : 19,
                    "material" : 3
                },
                {
                    "attributes" : {
                        "POSITION" : 20,
                        "NORMAL" : 21,
                        "TEXCOORD_0" : 22
                    },
                    "indices" : 23,
                    "material" : 4
                }
            ]
        }
    ],
    "accessors" : [
        {
            "bufferView" : 0,
            "componentType" : 5126,
            "count" : 24,
            "max" : [
                1,
                1,
                1
            ],
            "min" : [
                -1,
                -1,
                -1
            ],
            "type" : "VEC3"
        },
        {
            "bufferView" : 1,
            "componentType" : 5126,
            "count" : 24,
            "type" : "VEC3"
        },
        {
            "bufferView" : 2,
            "componentType" : 5126,
            "count" : 24,
            "type" : "VEC2"
        },
        {
            "bufferView" : 3,
            "componentType" : 5123,
            "count" : 36,
            "type" : "SCALAR"
        },
        {
            "bufferView" : 4,
            "componentType" : 5126,
            "count" : 342,
            "max" : [
                58.52873611450195,
                35.12348937988281,
                39.131797790527344
            ],
            "min" : [
                -61.925071716308594,
                -2.0108509063720703,
                -51.45820617675781
            ],
            "type" : "VEC3"
        },
        {
            "bufferView" : 5,
            "componentType" : 5126,
            "count" : 342,
            "type" : "VEC3"
        },
        {
            "bufferView" : 6,
            "componentType" : 5126,
            "count" : 342,
            "type" : "VEC2"
        },
        {
            "bufferView" : 7,
            "componentType" : 5123,
            "count" : 342,
            "type" : "SCALAR"
        },
        {
            "bufferView" : 8,
            "componentType" : 5126,
            "count" : 349,
            "max" : [
                20.13481903076172,
                77.66087341308594,
                9.030791282653809
            ],
            "min" : [
                -9.017294883728027,
                63.26579284667969,
                -20.63610076904297
            ],
            "type" : "VEC3"
        },
        {
            "bufferView" : 9,
            "componentType" : 5126,
            "count" : 349,
            "type" : "VEC3"
        },
        {
            "bufferView" : 10,
            "componentType" : 5126,
            "count" : 349,
            "type" : "VEC2"
        },
        {
            "bufferView" : 11,
            "componentType" : 5123,
            "count" : 996,
            "type" : "SCALAR"
        },
        {
            "bufferView" : 12,
            "componentType" : 5126,
            "count" : 1107,
            "max" : [
                23.56827163696289,
                88.08394622802734,
                12.351353645324707
            ],
            "min" : [
                -13.306565284729004,
                33.2657585144043,
                -24.246984481811523
            ],
            "type" : "VEC3"
        },
        {
            "bufferView" : 13,
            "componentType" : 5126,
            "count" : 1107,
            "type" : "VEC3"
        },
        {
            "bufferView" : 14,
            "componentType" : 5126,
            "count" : 1107,
            "type" : "VEC2"
        },
        {
            "bufferView" : 15,
            "componentType" : 5123,
            "count" : 1614,
            "type" : "SCALAR"
        },
        {
            "bufferView" : 16,
            "componentType" : 5126,
            "count" : 92,
            "max" : [
                9.830231666564941,
                83.84435272216797,
                -1.8588229417800903
            ],
            "min" : [
                1.9837440252304077,
                75.76950073242188,
                -9.552498817443848
            ],
            "type" : "VEC3"
        },
        {
            "bufferView" : 17,
            "componentType" : 5126,
            "count" : 92,
            "type" : "VEC3"
        },
        {
            "bufferView" : 18,
            "componentType" : 5126,
            "count" : 92,
            "type" : "VEC2"
        },
        {
            "bufferView" : 19,
            "componentType" : 5123,
            "count" : 180,
            "type" : "SCALAR"
        },
        {
            "bufferView" : 20,
            "componentType" : 5126,
            "count" : 72,
            "max" : [
                9.70561408996582,
                78.4646224975586,
                -1.8588229417800903
            ],
            "min" : [
                2.028904914855957,
                77.87093353271484,
                -9.537178993225098
            ],
            "type" : "VEC3"
        },
        {
            "bufferView" : 21,
            "componentType" : 5126,
            "count" : 72,
            "type" : "VEC3"
        },
        {
            "bufferView" : 22,
            "componentType" : 5126,
            "count" : 72,
            "type" : "VEC2"
        },
        {
            "bufferView" : 23,
            "componentType" : 5123,
            "count" : 72,
            "type" : "SCALAR"
        }
    ],
    "bufferViews" : [
        {
            "buffer" : 0,
            "byteLength" : 288,
            "byteOffset" : 0
        },
        {
            "buffer" : 0,
            "byteLength" : 288,
            "byteOffset" : 288
        },
        {
            "buffer" : 0,
            "byteLength" : 192,
            "byteOffset" : 576
        },
        {
            "buffer" : 0,
            "byteLength" : 72,
            "byteOffset" : 768
        },
        {
            "buffer" : 0,
            "byteLength" : 4104,
            "byteOffset" : 840
        },
        {
            "buffer" : 0,
            "byteLength" : 4104,
            "byteOffset" : 4944
        },
        {
            "buffer" : 0,
            "byteLength" : 2736,
            "byteOffset" : 9048
        },
        {
            "buffer" : 0,
            "byteLength" : 684,
            "byteOffset" : 11784
        },
        {
            "buffer" : 0,
            "byteLength" : 4188,
            "byteOffset" : 12468
        },
        {
            "buffer" : 0,
            "byteLength" : 4188,
            "byteOffset" : 16656
        },
        {
            "buffer" : 0,
            "byteLength" : 2792,
            "byteOffset" : 20844
        },
        {
            "buffer" : 0,
            "byteLength" : 1992,
            "byteOffset" : 23636
        },
        {
            "buffer" : 0,
            "byteLength" : 13284,
            "byteOffset" : 25628
        },
        {
            "buffer" : 0,
            "byteLength" : 13284,
            "byteOffset" : 38912
        },
        {
            "buffer" : 0,
            "byteLength" : 8856,
            "byteOffset" : 52196
        },
        {
            "buffer" : 0,
            "byteLength" : 3228,
            "byteOffset" : 61052
        },
        {
            "buffer" : 0,
            "byteLength" : 1104,
            "byteOffset" : 64280
        },
        {
            "buffer" : 0,
            "byteLength" : 1104,
            "byteOffset" : 65384
        },
        {
            "buffer" : 0,
            "byteLength" : 736,
            "byteOffset" : 66488
        },
        {
            "buffer" : 0,
            "byteLength" : 360,
            "byteOffset" : 67224
        },
        {
            "buffer" : 0,
            "byteLength" : 864,
            "byteOffset" : 67584
        },
        {
            "buffer" : 0,
            "byteLength" : 864,
            "byteOffset" : 68448
        },
        {
            "buffer" : 0,
            "byteLength" : 576,
            "byteOffset" : 69312
        },
        {
            "buffer" : 0,
            "byteLength" : 144,
            "byteOffset" : 69888
        }
    ],
    "buffers" : [
        {
            "byteLength" : 70032,
            "uri" : "scene.bin"
        }
    ]
}
