{
    "asset" : {
        "generator" : "Khronos glTF Blender I/O v1.4.40",
        "version" : "2.0"
    },
    "scene" : 0,
    "scenes" : [
        {
            "name" : "Scene",
            "nodes" : [
                0,
                1,
                2,
                4,
                5
            ]
        }
    ],
    "nodes" : [
        {
            "name" : "Cube"
        },
        {
            "name" : "Light",
            "rotation" : [
                0.16907575726509094,
                0.7558803558349609,
                -0.27217137813568115,
                0.570947527885437
            ],
            "translation" : [
                4.076245307922363,
                5.903861999511719,
                -1.0054539442062378
            ]
        },
        {
            "name" : "Camera",
            "rotation" : [
                0.483536034822464,
                0.33687159419059753,
                -0.20870360732078552,
                0.7804827094078064
            ],
            "translation" : [
                7.358891487121582,
                4.958309173583984,
                6.925790786743164
            ]
        },
        {
            "mesh" : 0,
            "name" : "mesh1"
        },
        {
            "children" : [
                3
            ],
            "name" : "Model"
        },
        {
            "name" : "Home",
            "scale" : [
                0,
                0,
                0
            ]
        }
    ],
    "materials" : [
        {
            "doubleSided" : true,
            "name" : "material_0_1_0",
            "pbrMetallicRoughness" : {
                "baseColorFactor" : [
                    0.6038162708282471,
                    0.577113926410675,
                    0.4178089499473572,
                    1
                ],
                "metallicFactor" : 0,
                "roughnessFactor" : 0.4000000059604645
            }
        }
    ],
    "meshes" : [
        {
            "name" : "mesh1-geometry",
            "primitives" : [
                {
                    "attributes" : {
                        "POSITION" : 0,
                        "NORMAL" : 1,
                        "TEXCOORD_0" : 2
                    },
                    "indices" : 3,
                    "material" : 0
                }
            ]
        }
    ],
    "accessors" : [
        {
            "bufferView" : 0,
            "componentType" : 5126,
            "count" : 3885,
            "max" : [
                10.3840970993042,
                20.94782829284668,
                8.766416549682617
            ],
            "min" : [
                -4.8163981437683105,
                3.5613749027252197,
                -10.172125816345215
            ],
            "type" : "VEC3"
        },
        {
            "bufferView" : 1,
            "componentType" : 5126,
            "count" : 3885,
            "type" : "VEC3"
        },
        {
            "bufferView" : 2,
            "componentType" : 5126,
            "count" : 3885,
            "type" : "VEC2"
        },
        {
            "bufferView" : 3,
            "componentType" : 5123,
            "count" : 5631,
            "type" : "SCALAR"
        }
    ],
    "bufferViews" : [
        {
            "buffer" : 0,
            "byteLength" : 46620,
            "byteOffset" : 0
        },
        {
            "buffer" : 0,
            "byteLength" : 46620,
            "byteOffset" : 46620
        },
        {
            "buffer" : 0,
            "byteLength" : 31080,
            "byteOffset" : 93240
        },
        {
            "buffer" : 0,
            "byteLength" : 11262,
            "byteOffset" : 124320
        }
    ],
    "buffers" : [
        {
            "byteLength" : 135584,
            "uri" : "scene.bin"
        }
    ]
}
